<svg xmlns="http://www.w3.org/2000/svg" xmlns:xlink="http://www.w3.org/1999/xlink" width="39" height="39" viewBox="0 0 39 39"><defs><path id="avp6a" d="M302.2 97.72a15.28 15.28 0 0 0 4.3 2.73c1.5.6 3.02.84 4.58.73 1.57-.11 3.17-.6 4.81-1.47a21.53 21.53 0 0 0 5.02-3.86c3.35-3.35 5.2-6.6 5.53-9.72.33-3.13-.78-5.97-3.33-8.52-.99-1-2-1.73-3.04-2.2a7.65 7.65 0 0 0-3.37-.7c-1.2.02-2.51.3-3.92.85-1.4.55-2.96 1.37-4.67 2.46l-3.76 2.44c-.99.64-1.75.98-2.28 1.03-.53.05-.99-.11-1.36-.49-.44-.44-.61-1-.51-1.67.1-.67.6-1.45 1.47-2.33a4.5 4.5 0 0 1 2.37-1.4c.76-.13 1.66.14 2.71.8l6.47-7.78c-1.1-.92-2.29-1.62-3.58-2.1a9.66 9.66 0 0 0-4.11-.53c-1.46.11-2.97.58-4.54 1.4a20.16 20.16 0 0 0-4.8 3.68 22 22 0 0 0-3.58 4.57 12.29 12.29 0 0 0-1.62 4.58 9.55 9.55 0 0 0 .46 4.4c.5 1.41 1.37 2.75 2.63 4 1.93 1.94 4.09 2.88 6.47 2.84 2.38-.05 5.19-1.15 8.43-3.28l3.75-2.5a5.27 5.27 0 0 1 2.3-.97c.55-.03 1.04.18 1.48.62.57.57.8 1.21.68 1.93-.13.72-.64 1.53-1.54 2.43-1.12 1.12-2.18 1.72-3.2 1.8a4.4 4.4 0 0 1-3.02-1z"/><path id="avp6e" d="M289 107V60h39v47zm13.2-13.28a15.28 15.28 0 0 0 4.3 2.73c1.5.6 3.02.84 4.58.73 1.57-.11 3.17-.6 4.81-1.47a21.53 21.53 0 0 0 5.02-3.86c3.35-3.35 5.2-6.6 5.53-9.72.33-3.13-.78-5.97-3.33-8.52-.99-1-2-1.73-3.04-2.2a7.65 7.65 0 0 0-3.37-.7c-1.2.02-2.51.3-3.92.85-1.4.55-2.96 1.37-4.67 2.46l-3.76 2.44c-.99.64-1.75.98-2.28 1.03-.53.05-.99-.11-1.36-.49-.44-.44-.61-1-.51-1.67.1-.67.6-1.45 1.47-2.33a4.5 4.5 0 0 1 2.37-1.4c.76-.13 1.66.14 2.71.8l6.47-7.78c-1.1-.92-2.29-1.62-3.58-2.1a9.66 9.66 0 0 0-4.11-.53c-1.46.11-2.97.58-4.54 1.4a20.16 20.16 0 0 0-4.8 3.68 22 22 0 0 0-3.58 4.57 12.29 12.29 0 0 0-1.62 4.58 9.55 9.55 0 0 0 .46 4.4c.5 1.41 1.37 2.75 2.63 4 1.93 1.94 4.09 2.88 6.47 2.84 2.38-.05 5.19-1.15 8.43-3.28l3.75-2.5a5.27 5.27 0 0 1 2.3-.97c.55-.03 1.04.18 1.48.62.57.57.8 1.21.68 1.93-.13.72-.64 1.53-1.54 2.43-1.12 1.12-2.18 1.72-3.2 1.8a4.4 4.4 0 0 1-3.02-1z"/><mask id="avp6c" width="2" height="2" x="-1" y="-1"><path fill="#fff" d="M289 64h39v39h-39z"/><use xlink:href="#avp6a"/></mask><filter id="avp6b" width="59" height="63" x="279" y="54" filterUnits="userSpaceOnUse"><feOffset dy="4" in="SourceGraphic" result="FeOffset1023Out"/><feGaussianBlur in="FeOffset1023Out" result="FeGaussianBlur1024Out" stdDeviation="0 0"/></filter><linearGradient id="avp6d" x1="291.5" x2="325.92" y1="101.21" y2="65.96" gradientUnits="userSpaceOnUse"><stop offset="0" stop-color="#ff5858"/><stop offset=".01" stop-color="#ff5859"/><stop offset="1" stop-color="#f857a6"/></linearGradient><filter id="avp6f" width="200%" height="200%" x="-50%" y="-50%"><feGaussianBlur in="SourceGraphic" result="FeGaussianBlur1046Out" stdDeviation="0 0"/></filter><mask id="avp6g"><use fill="#fff" xlink:href="#avp6a"/></mask></defs><g><g transform="translate(-289 -64)"><g filter="url(#avp6b)"><use fill="none" stroke-opacity=".05" stroke-width="0" mask="url(&quot;#avp6c&quot;)" xlink:href="#avp6a"/><use fill-opacity=".05" xlink:href="#avp6a"/></g><use xlink:href="#avp6a"/><use fill="url(#avp6d)" xlink:href="#avp6a"/><use fill="#fff" fill-opacity=".32" stroke="#fff" stroke-opacity=".32" stroke-width="0" filter="url(#avp6f)" mask="url(&quot;#avp6g&quot;)" xlink:href="#avp6e"/></g></g></svg>